<svg width="200" height="101" viewBox="0 0 104 21" fill="none" xmlns="http://www.w3.org/2000/svg">
<g clip-path="url(#clip0_1475_7571)">
<path d="M20.1824 11.9729H17.6559C17.6423 12.0447 17.614 12.7416 17.614 12.8164V14.0827C17.6126 15.0117 17.2296 15.9024 16.549 16.5593C15.8684 17.2162 14.9456 17.5859 13.9831 17.5872H11.3633C10.4005 17.5864 9.47733 17.217 8.79641 16.56C8.11549 15.9029 7.73245 15.012 7.73134 14.0827V12.8164C7.73134 11.5188 7.35829 10.5013 6.62162 9.79734C5.32119 8.55128 3.25056 8.56645 1.0678 8.58364C0.803732 8.58364 0.532328 8.58364 0.257781 8.58364C0.171256 8.58483 0.0850026 8.59329 0 8.60893L0 11.0434C0.081993 11.0575 0.165068 11.0649 0.24835 11.0656C0.529185 11.0656 0.807924 11.0656 1.07723 11.0656C2.71928 11.0545 4.26806 11.0424 4.80877 11.5602C5.0414 11.7827 5.15981 12.2055 5.15981 12.8205V14.0867C5.16342 15.672 5.81792 17.1913 6.97991 18.3117C8.14191 19.4321 9.71666 20.0623 11.3591 20.0642H13.9789C15.6224 20.0623 17.1981 19.4313 18.3603 18.3096C19.5225 17.1879 20.1762 15.667 20.1782 14.0807V12.8164C20.1824 12.7416 20.196 12.0447 20.1824 11.9729ZM13.4822 0.948487C12.5421 0.949087 11.6234 1.21865 10.842 1.7231C10.0607 2.22755 9.45177 2.94425 9.09232 3.78262C8.73287 4.62098 8.63899 5.54338 8.82253 6.43324C9.00608 7.32309 9.45881 8.14045 10.1235 8.78202C10.7882 9.42359 11.6351 9.86057 12.557 10.0377C13.479 10.2149 14.4346 10.1243 15.3032 9.77733C16.1718 9.43039 16.9144 8.8427 17.437 8.08855C17.9597 7.33439 18.239 6.44762 18.2396 5.5403C18.24 4.93718 18.1172 4.3399 17.8783 3.78262C17.6394 3.22533 17.2889 2.71898 16.8471 2.29251C16.4052 1.86604 15.8806 1.52782 15.3032 1.29721C14.7259 1.06659 14.107 0.948088 13.4822 0.948487ZM13.4822 8.03748C12.9702 8.03748 12.4697 7.89094 12.0441 7.61639C11.6184 7.34184 11.2867 6.95162 11.0908 6.49507C10.8949 6.03853 10.8437 5.53617 10.9437 5.05155C11.0436 4.56692 11.2903 4.12178 11.6523 3.77245C12.0144 3.42311 12.4757 3.18526 12.9779 3.08898C13.48 2.9927 14.0005 3.04232 14.4734 3.23155C14.9463 3.42079 15.3505 3.74115 15.6348 4.15211C15.919 4.56306 16.0707 5.04616 16.0705 5.5403C16.0696 6.20252 15.7966 6.83738 15.3114 7.30554C14.8261 7.77371 14.1683 8.03694 13.4822 8.03748Z" fill="#670B78"/>
<path d="M34.8292 5.83429V12.9041C34.8292 14.0935 34.6752 15.0594 34.3734 15.7765C34.0966 16.4607 33.56 17.0174 32.8728 17.333C32.178 17.6537 31.2381 17.8175 30.0791 17.8175C28.8478 17.8175 27.8492 17.6537 27.1136 17.333C26.3961 17.0276 25.8256 16.4705 25.5177 15.7745C25.1897 15.0604 25.0251 14.0945 25.0251 12.9051V5.83429H27.6637V12.9041C27.6637 13.6454 27.735 14.2351 27.8733 14.6528C28.0116 15.0705 28.2516 15.382 28.5911 15.558C28.9306 15.734 29.377 15.8159 29.9377 15.8159C30.4983 15.8159 30.9468 15.7279 31.2758 15.556C31.6049 15.384 31.849 15.0766 31.9884 14.6508C32.1277 14.225 32.198 13.6394 32.198 12.902V5.83429H34.8292ZM43.3234 8.96967C42.6591 8.97556 42.0032 9.11327 41.3963 9.37423C40.7433 9.65552 40.1341 10.0235 39.5866 10.4676L39.5363 10.509L39.2953 9.19016H37.2603V17.5768H39.8077V11.7935L39.8276 11.7814C40.227 11.5828 40.6373 11.4055 41.0568 11.2504C41.4356 11.1129 41.8363 11.04 42.2409 11.035C42.593 11.035 42.8487 11.1108 42.9965 11.2605C43.1442 11.4102 43.2218 11.6732 43.2218 12.0696V17.5818H45.7692V11.2777C45.7692 9.72418 44.9707 8.96764 43.3234 8.96764V8.96967ZM48.5262 9.19218V17.5788H51.0558V9.19016L48.5262 9.19218ZM50.3663 5.45905H49.2314C48.7316 5.45905 48.4916 5.69876 48.4916 6.19334V7.10361C48.4916 7.59819 48.7316 7.8379 49.2314 7.8379H50.3663C50.8661 7.8379 51.1092 7.59819 51.1092 7.10361V6.19334C51.1092 5.70179 50.8661 5.45703 50.3663 5.45703V5.45905ZM60.7111 13.5908C60.3632 13.2388 59.8214 12.9698 59.0963 12.7888L56.8077 12.2578C56.5005 12.1903 56.2009 12.0945 55.9128 11.9715C55.7221 11.8815 55.6257 11.6974 55.6257 11.4335C55.6257 11.2059 55.6791 11.0441 55.7881 10.951C55.8971 10.858 56.0794 10.8044 56.3361 10.7801C56.691 10.7536 57.0472 10.7465 57.4029 10.7589H57.4081C57.9321 10.7589 58.4927 10.7589 59.0847 10.7659C59.6296 10.774 60.1924 10.7811 60.7614 10.7932L60.9311 9.28422C60.5738 9.2205 60.163 9.16386 59.7093 9.12037C59.2377 9.07587 58.7494 9.03642 58.2569 9.01012C57.7644 8.98383 57.2939 8.96562 56.8758 8.96562C55.9735 8.96562 55.239 9.04653 54.6962 9.20533C54.1534 9.36412 53.7635 9.60989 53.5278 9.95175C53.292 10.2936 53.1704 10.7538 53.1704 11.3263C53.1622 11.7236 53.2246 12.1194 53.3549 12.4965C53.4786 12.8227 53.6968 13.1078 53.9836 13.3177C54.2854 13.5433 54.7171 13.7314 55.2662 13.876L57.4836 14.407C57.8134 14.4767 58.136 14.5749 58.4476 14.7003C58.6624 14.8015 58.7714 14.9815 58.7714 15.2485C58.7785 15.3384 58.7653 15.4286 58.7325 15.513C58.6997 15.5974 58.6483 15.6738 58.5817 15.737C58.455 15.8473 58.2338 15.916 57.9027 15.9454C57.5716 15.9747 57.1189 15.9868 56.5153 15.9868H55.3448C54.9319 15.9868 54.5799 15.9868 54.2623 15.9798C53.9448 15.9727 53.6871 15.9646 53.4817 15.9555L53.3119 17.4595C54.0852 17.5862 54.8654 17.6703 55.6487 17.7113C56.3613 17.7457 56.9114 17.7629 57.2792 17.7629C58.2035 17.7629 58.9716 17.6901 59.5573 17.5505C60.1431 17.4109 60.5665 17.154 60.8326 16.7849C61.0988 16.4157 61.2329 15.8746 61.2329 15.1797C61.2329 14.4849 61.0558 13.9418 60.7111 13.5908ZM72.2861 13.4543C72.2861 14.5749 72.1645 15.4629 71.9235 16.0961C71.6825 16.7292 71.323 17.1682 70.8421 17.42C70.3611 17.6719 69.747 17.8013 69.024 17.8013C68.4203 17.8036 67.8198 17.718 67.2426 17.5475C66.8225 17.4199 66.4283 17.2235 66.0773 16.9669L66.0081 16.9153L66.0165 16.9993C66.0385 17.2734 66.0543 17.505 66.0647 17.7275C66.0815 18.0926 66.0846 18.4618 66.0742 18.8309V20.8325H63.5267V9.19016H65.5848L65.7944 10.5141L65.8499 10.4484C66.0809 10.1778 66.353 9.94256 66.6568 9.75048C67.0349 9.50808 67.447 9.31938 67.8807 9.19016C68.3241 9.05488 68.7864 8.98664 69.2514 8.98787C70.3317 8.98787 71.1145 9.37423 71.5787 10.1358C72.043 10.8974 72.2861 12.016 72.2861 13.4522V13.4543ZM69.6663 13.4715C69.6663 12.7766 69.6181 12.2335 69.5249 11.8613C69.4316 11.4891 69.265 11.214 69.047 11.0623C68.7912 10.9064 68.4921 10.8298 68.1899 10.8428C67.8236 10.8398 67.4612 10.9148 67.1283 11.0623C66.7678 11.2284 66.4213 11.4215 66.092 11.6398L66.0763 11.6499V15.6784L66.1046 15.6885C66.4441 15.7896 66.7249 15.8645 66.9638 15.9262C67.3298 16.0161 67.7064 16.0596 68.084 16.0556C68.4046 16.07 68.7235 16.0034 69.0093 15.8624C69.2419 15.733 69.4117 15.4731 69.5133 15.0938C69.615 14.7145 69.6653 14.1764 69.6653 13.4694L69.6663 13.4715ZM79.8655 14.0965H76.6987V14.138C76.7252 14.3635 76.7729 14.5863 76.8412 14.8035C76.9754 15.1949 77.2059 15.471 77.5276 15.6227C77.8493 15.7745 78.2884 15.8483 78.848 15.8483C79.2514 15.8483 79.7554 15.8331 80.3485 15.8068C80.9416 15.7805 81.5253 15.731 82.1153 15.6642L82.3636 17.1631C82.0004 17.3249 81.6193 17.4463 81.2277 17.5252C80.7846 17.6176 80.3359 17.6831 79.8843 17.7214C79.4232 17.7629 78.9768 17.7821 78.5566 17.7821C77.4564 17.7821 76.5562 17.6253 75.8845 17.3148C75.2357 17.0257 74.7185 16.5178 74.43 15.8867C74.1335 15.2424 73.9815 14.406 73.9815 13.4007C73.9815 12.3023 74.1356 11.4213 74.4395 10.7781C74.7193 10.1607 75.2285 9.66671 75.8667 9.39345C76.5216 9.11228 77.3956 8.96764 78.4602 8.96764C79.9273 8.96764 80.9846 9.21038 81.6207 9.68979C82.2567 10.1692 82.5743 10.8833 82.5743 11.8249V11.8815C82.5743 12.6158 82.3762 13.1731 81.9811 13.5372C81.5861 13.9013 80.8662 14.0965 79.8655 14.0965ZM79.1372 12.7483C79.5563 12.7483 79.8193 12.6623 79.9409 12.4843C80.0691 12.2675 80.1299 12.0196 80.1159 11.7703C80.1033 11.3586 79.9765 11.0704 79.7355 10.9085C79.4945 10.7467 79.1068 10.6709 78.5524 10.6709C78.0631 10.6709 77.6754 10.7346 77.3998 10.862C77.1242 10.9895 76.9209 11.2433 76.8119 11.6054C76.7174 11.9663 76.6664 12.3366 76.66 12.7089V12.7483H79.1372ZM90.9563 8.96764C90.2913 8.97341 89.6347 9.11111 89.0272 9.37221C88.375 9.65401 87.7667 10.022 87.2196 10.4655L87.1693 10.507L86.9314 9.18611H84.889V17.5727H87.4386V11.7935L87.4585 11.7814C87.8578 11.5828 88.2681 11.4055 88.6876 11.2504C89.0664 11.1127 89.4671 11.0398 89.8718 11.035C90.2239 11.035 90.4774 11.1108 90.6273 11.2605C90.7771 11.4102 90.8505 11.6732 90.8505 12.0696V17.5818H93.4V11.2777C93.4 9.72418 92.5994 8.96764 90.9563 8.96764ZM103.999 5.66235V17.5768H101.997L101.762 16.1992L101.709 16.265C101.365 16.6792 100.946 17.0292 100.471 17.2976C99.9116 17.6183 99.2137 17.7821 98.3985 17.7821C97.2929 17.7821 96.4944 17.3957 96.026 16.6352C95.5576 15.8746 95.3135 14.7509 95.3135 13.3147C95.3135 12.1951 95.435 11.3091 95.676 10.685C95.917 10.061 96.2796 9.61798 96.7658 9.35906C97.2521 9.10014 97.8682 8.96967 98.5934 8.96967C99.1941 8.96833 99.7915 9.05495 100.365 9.22657C100.76 9.34261 101.133 9.51843 101.47 9.74744L101.536 9.79195L101.521 9.58966C101.505 9.40356 101.488 9.21241 101.478 9.02428C101.462 8.66725 101.452 8.29506 101.452 7.92083V5.66235H103.999ZM101.452 11.0795L101.425 11.0694C101.146 10.9915 100.88 10.9156 100.644 10.8468C100.276 10.75 99.8965 10.7036 99.5155 10.7093C99.2 10.6954 98.8862 10.762 98.6059 10.9025C98.3723 11.0329 98.2004 11.2868 98.0914 11.661C97.9824 12.0353 97.929 12.5784 97.929 13.2975C97.929 13.9731 97.9824 14.492 98.083 14.8419C98.1836 15.1919 98.3523 15.4488 98.5776 15.5833C98.8407 15.7271 99.1401 15.7972 99.4421 15.7856C99.7147 15.7903 99.9866 15.7583 100.25 15.6905C100.491 15.6217 100.721 15.5228 100.934 15.3962C101.066 15.3183 101.224 15.2182 101.432 15.0837L101.449 15.0715L101.452 11.0795Z" fill="#670B78"/>
</g>
<defs>
<clipPath id="clip0_1475_7571">
<rect width="104" height="19.8824" fill="white" transform="translate(0 0.948486)"/>
</clipPath>
</defs>
</svg>
